<svg width="747" height="979" viewBox="0 0 747 979" fill="none" xmlns="http://www.w3.org/2000/svg">
<path fill-rule="evenodd" clip-rule="evenodd" d="M253.724 355.096C225.112 359.593 197.683 370.336 173.571 382.392C152.928 392.715 141.253 399.462 124.353 412.762C100.401 431.613 104.292 429.322 83.4015 451.346C-19.5671 559.895 -25.6404 718.674 56.6028 843.517L80.5551 875.04C105.994 908.69 171.644 946.744 207.814 959.755C307.315 995.545 420.931 978.831 503.094 916.759C557.556 875.617 590.556 826.329 614.386 760.711C656.073 645.928 563.672 648.283 547.883 690.012C537.271 718.062 538.415 740.292 522.621 770.52C514.994 785.113 488.69 822.118 476.909 832.73C411.497 891.657 322.441 912.3 237.604 883.673C212.447 875.185 169.473 849.976 155.078 831.768C146.916 821.448 141.848 824.868 118.913 788.76C68.0595 708.693 71.1416 619.132 117.03 540.005C139.899 500.567 189.424 461.068 233.352 445.209C262.776 434.588 293.257 436.431 302.31 407.865C313.408 372.843 286.587 349.932 253.723 355.096H253.724Z" fill="#BAD3FF"/>
<path fill-rule="evenodd" clip-rule="evenodd" d="M321.164 612.616C388.155 596.314 410.998 584.567 490.514 592.581C517.773 595.331 546.436 601.043 570.723 608.577C597.962 617.025 636.405 634.447 642.387 636.115C630.877 600.827 588.019 563.847 553.318 546.499C507.035 523.36 461.663 515.942 403.268 518.422C408.369 479.944 429.737 441.434 452.852 414.203C476.492 386.35 508.515 369.042 538.947 348.913C638.28 283.211 750.7 176.233 746.044 43.2983C736.976 53.8689 709.924 112.943 667.684 152.855C635.039 183.702 640.859 181.046 602.601 212.837C518.383 282.822 433.853 305.491 402.549 327.83C383.646 341.321 357.791 375.556 346.991 397.449C312.358 467.665 309.52 529.228 321.163 612.616H321.164Z" fill="white"/>
<path fill-rule="evenodd" clip-rule="evenodd" d="M440.143 1.46944C331.581 19.6835 361.567 186.619 470.956 164.996C577.055 144.023 550.106 -16.9812 440.143 1.46944Z" fill="white"/>
</svg>
